<svg xmlns="http://www.w3.org/2000/svg" width="59" height="59" viewBox="0 0 59 59" fill="none">
  <path d="M0.887451 0.234375H51.5609C55.4087 0.234375 58.528 3.35368 58.528 7.20153V51.3269C58.528 55.1747 55.4087 58.294 51.5609 58.294H0.887451V0.234375Z" fill="#FFFC00"/>
  <path d="M0.887451 0.234375H51.5609C55.4087 0.234375 58.528 3.35368 58.528 7.20153V51.3269C58.528 55.1747 55.4087 58.294 51.5609 58.294H0.887451V0.234375Z" stroke="#D6D6D6"/>
  <svg xmlns="http://www.w3.org/2000/svg" x="20" y="20" width="19" height="16" viewBox="0 0 19 16" fill="none">
    <path fill-rule="evenodd" clip-rule="evenodd" d="M11.2821 15.3931L17.8028 8.92343C18.4032 8.32743 18.4032 7.36137 17.8028 6.76719L11.2821 0.297561L9.10842 2.45517L13.0049 6.3203H0.637695L0.637695 9.36987H13.0049L9.10842 13.2364L11.2821 15.3931Z" fill="#808080"/>
  </svg>
</svg>
