<svg width="31" height="31" viewBox="0 0 31 31" fill="none" xmlns="http://www.w3.org/2000/svg">
<circle cx="15.5" cy="15.5" r="15.5" fill="black"/>
<g clip-path="url(#clip0_611_741)">
<path d="M17.2826 16.0117L22.7339 10.5602C23.0887 10.2056 23.0887 9.63226 22.7339 9.27767C22.3793 8.92307 21.806 8.92307 21.4514 9.27767L15.9999 14.7292L10.5486 9.27767C10.1938 8.92307 9.62067 8.92307 9.26607 9.27767C8.91131 9.63226 8.91131 10.2056 9.26607 10.5602L14.7174 16.0117L9.26607 21.4632C8.91131 21.8178 8.91131 22.3911 9.26607 22.7457C9.44279 22.9226 9.67515 23.0114 9.90734 23.0114C10.1395 23.0114 10.3717 22.9226 10.5486 22.7457L15.9999 17.2942L21.4514 22.7457C21.6283 22.9226 21.8605 23.0114 22.0927 23.0114C22.3249 23.0114 22.5571 22.9226 22.7339 22.7457C23.0887 22.3911 23.0887 21.8178 22.7339 21.4632L17.2826 16.0117Z" fill="white"/>
</g>
<defs>
<clipPath id="clip0_611_741">
<rect width="14" height="14" fill="white" transform="translate(9 9)"/>
</clipPath>
</defs>
</svg>
