<svg width="91" height="91" viewBox="0 0 91 91" fill="none" xmlns="http://www.w3.org/2000/svg">
<g filter="url(#filter0_d_735_1461)">
<circle cx="45.917" cy="36.6009" r="35.8089" fill="black"/>
<circle cx="45.917" cy="36.6009" r="33.4986" stroke="white" stroke-width="4.6205"/>
</g>
<path fill-rule="evenodd" clip-rule="evenodd" d="M60.3563 25.5309C60.3563 24.6272 59.6237 23.8945 58.7199 23.8945H32.5371C31.6333 23.8945 30.9006 24.6272 30.9006 25.5309C30.9006 26.4347 31.6333 27.1674 32.5371 27.1674H58.7199C59.6237 27.1674 60.3563 26.4347 60.3563 25.5309ZM60.3563 35.3495C60.3563 34.4457 59.6237 33.7131 58.7199 33.7131H42.3556C41.4518 33.7131 40.7192 34.4457 40.7192 35.3495C40.7192 36.2533 41.4518 36.9859 42.3556 36.9859H58.7199C59.6237 36.9859 60.3563 36.2533 60.3563 35.3495ZM60.3563 45.168C60.3563 44.2642 59.6237 43.5316 58.7199 43.5316H50.5378C49.634 43.5316 48.9013 44.2642 48.9013 45.168C48.9013 46.0718 49.634 46.8045 50.5378 46.8045H58.7199C59.6237 46.8045 60.3563 46.0718 60.3563 45.168Z" fill="white"/>
<defs>
<filter id="filter0_d_735_1461" x="0.867157" y="0.791992" width="90.0997" height="90.0997" filterUnits="userSpaceOnUse" color-interpolation-filters="sRGB">
<feFlood flood-opacity="0" result="BackgroundImageFix"/>
<feColorMatrix in="SourceAlpha" type="matrix" values="0 0 0 0 0 0 0 0 0 0 0 0 0 0 0 0 0 0 127 0" result="hardAlpha"/>
<feOffset dy="9.241"/>
<feGaussianBlur stdDeviation="4.6205"/>
<feComposite in2="hardAlpha" operator="out"/>
<feColorMatrix type="matrix" values="0 0 0 0 1 0 0 0 0 1 0 0 0 0 1 0 0 0 0.25 0"/>
<feBlend mode="normal" in2="BackgroundImageFix" result="effect1_dropShadow_735_1461"/>
<feBlend mode="normal" in="SourceGraphic" in2="effect1_dropShadow_735_1461" result="shape"/>
</filter>
</defs>
</svg>
