<svg width="31" height="31" viewBox="0 0 31 31" fill="none" xmlns="http://www.w3.org/2000/svg">
<circle cx="15.5" cy="15.5" r="15.5" fill="#FFFC00"/>
<path fill-rule="evenodd" clip-rule="evenodd" d="M21.75 11.5C21.75 11.0858 21.4142 10.75 21 10.75H9C8.58578 10.75 8.25 11.0858 8.25 11.5C8.25 11.9142 8.58578 12.25 9 12.25H21C21.4142 12.25 21.75 11.9142 21.75 11.5ZM21.75 16C21.75 15.5858 21.4142 15.25 21 15.25H13.5C13.0858 15.25 12.75 15.5858 12.75 16C12.75 16.4142 13.0858 16.75 13.5 16.75H21C21.4142 16.75 21.75 16.4142 21.75 16ZM21.75 20.5C21.75 20.0858 21.4142 19.75 21 19.75H17.25C16.8358 19.75 16.5 20.0858 16.5 20.5C16.5 20.9142 16.8358 21.25 17.25 21.25H21C21.4142 21.25 21.75 20.9142 21.75 20.5Z" fill="#333333"/>
</svg>
