<svg width="46" height="45" viewBox="0 0 46 45" fill="none" xmlns="http://www.w3.org/2000/svg">
<g clip-path="url(#clip0_167_373)">
<path d="M44.6853 10.317C44.6574 10.317 44.6306 10.3123 44.6039 10.303L37.3638 7.73488C37.2893 7.70926 37.2392 7.65919 37.2137 7.58473L34.6456 0.345836C34.6106 0.245764 34.6304 0.159656 34.7072 0.0863479C34.784 0.0142034 34.8701 -0.00325101 34.969 0.0363124L41.9322 2.87789C41.9962 2.90465 42.0415 2.95003 42.0683 3.01403L44.9122 9.97949C44.9273 10.0179 44.9332 10.0575 44.9285 10.097C44.9239 10.1377 44.911 10.175 44.8878 10.2087C44.8656 10.2424 44.8354 10.2692 44.8005 10.2878C44.7644 10.3076 44.726 10.317 44.6853 10.317ZM37.6372 7.31011L44.2501 9.65485L41.6517 3.29563L35.2925 0.698416L37.6372 7.31011Z" fill="#191919"/>
<path d="M44.931 10.0168C44.9112 9.92832 44.8576 9.87015 44.7727 9.8399L37.6385 7.31018L35.1099 0.175991C35.096 0.136428 35.0727 0.102683 35.0413 0.0747553C35.0099 0.0468284 34.9738 0.0282104 34.9319 0.0189014C34.8912 0.00959238 34.8505 0.0107559 34.8098 0.022392C34.769 0.0340284 34.7341 0.0549739 34.705 0.0852279L0.376909 34.4157L0.3676 34.4262L0.361782 34.432C0.283819 34.5053 0.264038 34.5926 0.30011 34.6926L2.86823 41.9315C2.87289 41.9432 2.8787 41.9548 2.88452 41.9653L2.8915 41.978C2.90081 41.9921 2.91128 42.0048 2.92292 42.0176C2.93572 42.0293 2.94852 42.0397 2.96249 42.049L2.97412 42.0548C2.9846 42.0618 2.99739 42.0665 3.00903 42.0712L10.2491 44.6393C10.2747 44.6486 10.3026 44.6544 10.3305 44.6544C10.4015 44.6544 10.4609 44.6288 10.5098 44.5776V44.5706L10.5202 44.5602L44.8588 10.246C44.9251 10.1832 44.9496 10.1064 44.931 10.0168ZM0.847011 34.6426L34.776 0.713583L37.1614 7.43934L3.20103 41.3998L0.831885 34.7229C0.841195 34.6961 0.84585 34.6694 0.847011 34.6426ZM10.3061 44.1017C10.2794 44.1017 10.2526 44.1063 10.227 44.1168L3.54779 41.7477L37.5094 7.78725L44.2351 10.1727L10.3061 44.1017Z" fill="#191919"/>
</g>
<defs>
<clipPath id="clip0_167_373">
<rect width="45.2125" height="44.6543" fill="white" transform="translate(0.00390625)"/>
</clipPath>
</defs>
</svg>
