<svg width="60" height="61" viewBox="0 0 60 61" fill="none" xmlns="http://www.w3.org/2000/svg">
<g clip-path="url(#clip0_196_186)">
<path d="M30 60.0016C13.4571 60.0016 0 46.5429 0 30.0016C0 13.4603 13.4571 0 30 0C46.5429 0 60 13.4587 60 30.0016C60 46.5445 46.5413 60.0016 30 60.0016ZM30 0.589032C13.7837 0.589032 0.58747 13.7852 0.58747 30.0016C0.58747 46.2195 13.7837 59.4125 30 59.4125C46.2179 59.4125 59.4109 46.2195 59.4109 30.0016C59.4109 13.7852 46.2179 0.589032 30 0.589032ZM30 53.9409C16.7991 53.9409 6.06218 43.2009 6.06218 30.0016C6.06218 16.8023 16.7991 6.06375 30 6.06375C43.2009 6.06375 53.9394 16.8007 53.9394 30.0016C53.9394 43.2024 43.1993 53.9409 30 53.9409ZM30 6.65278C17.1257 6.65278 6.65122 17.1272 6.65122 30.0016C6.65122 42.8774 17.1257 53.3519 30 53.3519C42.8759 53.3519 53.3503 42.8759 53.3503 30.0016C53.3503 17.1288 42.8744 6.65278 30 6.65278ZM30 47.8772C29.4157 47.8772 28.8313 47.8491 28.2485 47.7913C27.6658 47.7334 27.0877 47.6491 26.5126 47.5334C25.9393 47.4194 25.3706 47.2772 24.8112 47.1085C24.2503 46.9381 23.7003 46.7414 23.1597 46.5163C22.6176 46.2929 22.0894 46.0429 21.5723 45.7663C21.0567 45.4914 20.5552 45.1898 20.0677 44.8649C19.5818 44.5399 19.1115 44.1914 18.6584 43.8196C18.2069 43.4493 17.7725 43.0555 17.3584 42.6415C16.9445 42.2275 16.5523 41.7947 16.1804 41.3416C15.8086 40.8901 15.4601 40.4198 15.1352 39.9323C14.8102 39.4464 14.5102 38.9449 14.2337 38.4277C13.9571 37.912 13.7071 37.3824 13.4837 36.8418C13.2587 36.3012 13.0618 35.7512 12.8915 35.1904C12.7228 34.6295 12.5806 34.0623 12.4666 33.4888C12.3509 32.9139 12.2665 32.3358 12.2087 31.753C12.1509 31.1702 12.1228 30.5859 12.1228 30C12.1228 29.4157 12.1509 28.8313 12.2087 28.2485C12.265 27.6658 12.3509 27.0877 12.465 26.5126C12.5806 25.9393 12.7212 25.3721 12.8915 24.8112C13.0618 24.2519 13.2587 23.7003 13.4821 23.1597C13.7071 22.6191 13.9571 22.0894 14.2337 21.5739C14.5086 21.0567 14.8102 20.5552 15.1352 20.0693C15.4601 19.5818 15.8086 19.1131 16.1804 18.66C16.5507 18.2069 16.9445 17.7741 17.3584 17.36C17.7725 16.946 18.2053 16.5539 18.6584 16.182C19.1099 15.8102 19.5802 15.4617 20.0677 15.1367C20.5536 14.8118 21.0551 14.5102 21.5723 14.2352C22.0879 13.9586 22.6176 13.7087 23.1582 13.4852C23.6988 13.2602 24.2488 13.0633 24.8096 12.8931C25.3705 12.7243 25.9377 12.5821 26.5112 12.4681C27.0861 12.3525 27.6642 12.2665 28.247 12.2103C28.8298 12.1525 29.4141 12.1243 29.9984 12.1243C30.5843 12.1243 31.1687 12.1525 31.7515 12.2103C32.3342 12.2665 32.9123 12.3525 33.4874 12.4665C34.0607 12.5821 34.6279 12.7228 35.1888 12.8931C35.7481 13.0633 36.2997 13.2602 36.8403 13.4837C37.3809 13.7087 37.9105 13.9586 38.4261 14.2352C38.9433 14.5102 39.4448 14.8118 39.9308 15.1367C40.4182 15.4617 40.8869 15.8102 41.34 16.182C41.7931 16.5539 42.2259 16.946 42.64 17.36C43.054 17.7741 43.4462 18.2069 43.818 18.66C44.1899 19.1131 44.5383 19.5818 44.8633 20.0693C45.1882 20.5568 45.4898 21.0583 45.7648 21.5739C46.0414 22.091 46.2913 22.6191 46.5148 23.1597C46.7398 23.7019 46.9366 24.2518 47.1069 24.8128C47.2757 25.3721 47.4179 25.9393 47.5319 26.5142C47.6459 27.0892 47.7319 27.6673 47.7897 28.2501C47.8475 28.8329 47.8757 29.4173 47.8757 30.0016C47.8757 30.5875 47.8459 31.1718 47.7881 31.753C47.7303 32.3358 47.6444 32.9139 47.5288 33.4874C47.4147 34.0623 47.2726 34.6294 47.1022 35.1888C46.9319 35.7481 46.7335 36.2997 46.5101 36.8403C46.2851 37.3809 46.0351 37.909 45.7585 38.4245C45.4836 38.9402 45.182 39.4417 44.857 39.9276C44.5321 40.4151 44.1836 40.8838 43.8118 41.3369C43.4415 41.7884 43.0478 42.2228 42.6338 42.6353C42.2213 43.0493 41.7869 43.4431 41.3354 43.8134C40.8823 44.1852 40.4135 44.5336 39.926 44.8586C39.4401 45.1836 38.9386 45.4851 38.423 45.7601C37.9074 46.0367 37.3793 46.2866 36.8387 46.5116C36.2981 46.7351 35.7466 46.9335 35.1872 47.1038C34.6279 47.2741 34.0607 47.4163 33.4858 47.5303C32.9123 47.6459 32.3342 47.7319 31.7515 47.7897C31.1702 47.8475 30.5859 47.8772 30 47.8772ZM30 12.715C29.4344 12.715 28.8688 12.7415 28.3063 12.7978C27.7423 12.8524 27.1829 12.9352 26.6283 13.0462C26.0721 13.1571 25.5237 13.2947 24.9815 13.4587C24.4394 13.6227 23.9081 13.8133 23.3847 14.0306C22.8613 14.2461 22.3504 14.4883 21.8504 14.7555C21.3505 15.0226 20.8661 15.3133 20.3958 15.6273C19.924 15.9429 19.4708 16.2788 19.0318 16.6382C18.5944 16.9975 18.1756 17.3772 17.7757 17.7772C17.3741 18.1772 16.9944 18.5975 16.6351 19.0349C16.2773 19.4724 15.9398 19.9271 15.6257 20.3974C15.3101 20.8676 15.0195 21.3535 14.7523 21.852C14.4852 22.3519 14.2446 22.8629 14.0274 23.3863C13.8102 23.9097 13.6196 24.4425 13.4555 24.9831C13.2915 25.5252 13.154 26.0737 13.0431 26.6299C12.9337 27.1845 12.8493 27.7439 12.7946 28.3079C12.7384 28.8703 12.7118 29.436 12.7118 30.0016C12.7118 30.5687 12.7384 31.1327 12.7946 31.6968C12.8493 32.2608 12.9322 32.8202 13.0431 33.3749C13.154 33.9295 13.2915 34.4795 13.4555 35.0201C13.6196 35.5622 13.8102 36.095 14.0274 36.6184C14.243 37.1402 14.4852 37.6527 14.7523 38.1511C15.0195 38.6511 15.3101 39.1354 15.6241 39.6073C15.9398 40.0776 16.2757 40.5322 16.6351 40.9697C16.9944 41.4072 17.3741 41.8259 17.7741 42.2259C18.1756 42.6274 18.5944 43.0071 19.0318 43.3665C19.4693 43.7258 19.924 44.0618 20.3942 44.3758C20.8646 44.6915 21.3505 44.982 21.8489 45.2492C22.3488 45.5164 22.8598 45.757 23.3831 45.9742C23.9065 46.1914 24.4393 46.382 24.9799 46.546C25.5221 46.7101 26.0705 46.8475 26.6267 46.9585C27.1814 47.0678 27.7408 47.1507 28.3048 47.207C28.8688 47.2616 29.4328 47.2897 29.9984 47.2897C30.5656 47.2897 31.1297 47.2616 31.6937 47.207C32.2577 47.1507 32.8171 47.0678 33.3717 46.9585C33.9279 46.8475 34.4763 46.7101 35.0169 46.546C35.5591 46.382 36.0919 46.1914 36.6153 45.9742C37.1387 45.757 37.6496 45.5164 38.148 45.2492C38.648 44.982 39.1324 44.6914 39.6042 44.3773C40.0744 44.0617 40.5292 43.7258 40.9667 43.3665C41.4041 43.0071 41.8228 42.6274 42.2228 42.2275C42.6244 41.8259 43.004 41.4072 43.3633 40.9697C43.7227 40.5322 44.0587 40.0776 44.3743 39.6073C44.6883 39.1354 44.9789 38.6511 45.2461 38.1511C45.5132 37.6527 45.7539 37.1418 45.971 36.6184C46.1882 36.095 46.3788 35.5622 46.5429 35.0201C46.7069 34.4795 46.8445 33.9295 46.9554 33.3749C47.0648 32.8202 47.1491 32.2608 47.2038 31.6968C47.2601 31.1327 47.2866 30.5687 47.2866 30.0016C47.2866 29.436 47.2585 28.8719 47.2022 28.3079C47.146 27.7454 47.0632 27.1861 46.9523 26.6314C46.8413 26.0752 46.7038 25.5283 46.5382 24.9862C46.3741 24.4441 46.1835 23.9128 45.9664 23.3894C45.7492 22.8676 45.507 22.3567 45.2399 21.8567C44.9726 21.3583 44.6821 20.8723 44.368 20.402C44.0539 19.9318 43.7164 19.4787 43.3571 19.0412C42.9978 18.6038 42.6181 18.1835 42.2181 17.7835C41.8181 17.3835 41.3994 17.0038 40.9619 16.6445C40.5244 16.2851 40.0714 15.9492 39.5995 15.6335C39.1292 15.3195 38.6449 15.0289 38.1464 14.7617C37.6465 14.4946 37.1356 14.2524 36.6137 14.0352C36.0903 13.818 35.5575 13.6274 35.0169 13.4633C34.4748 13.2993 33.9263 13.1602 33.3717 13.0493C32.8171 12.9384 32.2577 12.8556 31.6952 12.7993C31.1312 12.7431 30.5672 12.715 30 12.715ZM30 41.815C29.614 41.815 29.2282 41.7962 28.8422 41.7572C28.4579 41.7197 28.0751 41.6635 27.6954 41.5885C27.3158 41.5119 26.9408 41.4181 26.5705 41.3056C26.2002 41.1931 25.8362 41.0635 25.4799 40.915C25.1222 40.7682 24.7721 40.6026 24.4316 40.4198C24.0894 40.237 23.7581 40.0385 23.4363 39.8245C23.1144 39.6088 22.8035 39.3792 22.5051 39.1339C22.2067 38.8871 21.9192 38.6277 21.6458 38.3542C21.3723 38.0808 21.113 37.7949 20.8677 37.4949C20.6224 37.1965 20.3911 36.8856 20.1771 36.5637C19.9615 36.2435 19.763 35.9106 19.5802 35.57C19.3974 35.2295 19.2334 34.8794 19.0849 34.5216C18.9365 34.1638 18.8069 33.7998 18.6944 33.4295C18.5819 33.0592 18.4881 32.6858 18.4131 32.3061C18.3365 31.9264 18.2803 31.5436 18.2428 31.1593C18.2038 30.7734 18.185 30.3874 18.185 30C18.185 29.614 18.2038 29.2282 18.2428 28.8422C18.2803 28.4579 18.3365 28.0751 18.4115 27.6954C18.4881 27.3158 18.5819 26.9423 18.6944 26.5721C18.8069 26.2018 18.9365 25.8377 19.0849 25.4799C19.2318 25.1222 19.3974 24.7737 19.5802 24.4316C19.763 24.0909 19.9615 23.7597 20.1755 23.4379C20.3911 23.116 20.6208 22.805 20.8661 22.5067C21.1114 22.2067 21.3723 21.9207 21.6458 21.6473C21.9192 21.3739 22.2051 21.1145 22.5035 20.8692C22.8035 20.6224 23.1144 20.3927 23.4347 20.1771C23.7565 19.963 24.0894 19.7646 24.43 19.5818C24.7705 19.399 25.1206 19.2349 25.4783 19.0865C25.8361 18.9381 26.1986 18.8084 26.5689 18.6959C26.9393 18.5834 27.3142 18.4897 27.6939 18.4131C28.0736 18.3381 28.4564 18.2819 28.8407 18.2444C29.2266 18.2053 29.6125 18.1865 29.9984 18.1865C30.3859 18.1865 30.7718 18.2053 31.1578 18.2444C31.5421 18.2819 31.9249 18.3381 32.3046 18.4131C32.6827 18.4897 33.0577 18.5834 33.4279 18.6959C33.7982 18.8084 34.1623 18.9381 34.5201 19.0865C34.8778 19.2334 35.2263 19.399 35.5685 19.5818C35.9091 19.7646 36.2403 19.963 36.5621 20.1771C36.884 20.3927 37.195 20.6224 37.4933 20.8676C37.7933 21.1145 38.0793 21.3739 38.3527 21.6473C38.6261 21.9207 38.8855 22.2067 39.1308 22.5067C39.376 22.805 39.6073 23.116 39.8214 23.4379C40.0369 23.7597 40.2354 24.0909 40.4182 24.4316C40.601 24.7737 40.765 25.1222 40.9135 25.4799C41.0619 25.8377 41.1916 26.2018 41.3041 26.5721C41.4166 26.9423 41.5103 27.3173 41.5853 27.697C41.6619 28.0766 41.7181 28.4594 41.7556 28.8438C41.7947 29.2297 41.8135 29.6156 41.8135 30.0016C41.8119 30.389 41.7931 30.775 41.7556 31.1593C41.7166 31.5436 41.6603 31.9264 41.5837 32.3061C41.5088 32.6842 41.4135 33.0592 41.301 33.4295C41.1885 33.7998 41.0588 34.1638 40.9104 34.5201C40.762 34.8778 40.5963 35.2263 40.4151 35.5685C40.2323 35.9091 40.0339 36.2403 39.8182 36.5621C39.6026 36.8825 39.373 37.1934 39.1277 37.4918C38.8823 37.7918 38.623 38.0777 38.3496 38.3511C38.0761 38.6245 37.7902 38.8839 37.4902 39.1292C37.1918 39.3745 36.8809 39.6042 36.5606 39.8198C36.2387 40.0354 35.9075 40.2338 35.5669 40.4151C35.2247 40.5979 34.8763 40.7635 34.5185 40.9119C34.1623 41.0603 33.7982 41.1901 33.4279 41.3025C33.0577 41.415 32.6827 41.5103 32.3046 41.5853C31.9249 41.6619 31.5421 41.7182 31.1578 41.7572C30.7734 41.7947 30.3874 41.8135 30 41.815ZM30 18.7771C29.6328 18.7771 29.2657 18.7959 28.9001 18.8318C28.5344 18.8678 28.1704 18.9209 27.8111 18.9928C27.4502 19.0646 27.0939 19.1537 26.7424 19.2599C26.3893 19.3678 26.044 19.4911 25.7049 19.6318C25.3643 19.7724 25.033 19.9286 24.7081 20.1021C24.3847 20.2755 24.0691 20.4646 23.7644 20.6693C23.4581 20.8724 23.1628 21.0911 22.8785 21.3254C22.5941 21.5582 22.3223 21.8051 22.0629 22.0645C21.802 22.3254 21.5551 22.5973 21.3223 22.8816C21.0896 23.1644 20.8708 23.4597 20.6661 23.7659C20.4614 24.0722 20.2739 24.3862 20.1005 24.7112C19.9271 25.0346 19.7693 25.3674 19.6287 25.7065C19.4881 26.0455 19.3646 26.3923 19.2584 26.7439C19.1506 27.0955 19.0615 27.4517 18.9896 27.8126C18.9178 28.1735 18.8647 28.536 18.8287 28.9016C18.7927 29.2673 18.774 29.6344 18.774 30.0016C18.774 30.3703 18.7927 30.7359 18.8287 31.1031C18.8647 31.4686 18.9178 31.8311 18.9896 32.1921C19.0615 32.553 19.1506 32.9092 19.2568 33.2608C19.3646 33.6123 19.4881 33.9576 19.6287 34.2982C19.7693 34.6372 19.9255 34.97 20.0989 35.2935C20.2724 35.6185 20.4614 35.9325 20.6661 36.2387C20.8708 36.5434 21.0896 36.8387 21.3223 37.123C21.5551 37.4074 21.802 37.6792 22.0613 37.9387C22.3223 38.1996 22.5941 38.4464 22.8785 38.6792C23.1628 38.912 23.4566 39.1308 23.7628 39.3355C24.0691 39.5401 24.3831 39.7276 24.7081 39.9011C25.0315 40.0745 25.3643 40.2323 25.7033 40.3729C26.0424 40.5135 26.3893 40.6369 26.7408 40.7432C27.0923 40.851 27.4486 40.94 27.8095 41.0119C28.1704 41.0838 28.5329 41.1369 28.8985 41.1728C29.2641 41.2088 29.6313 41.2276 29.9984 41.2276C30.3672 41.2276 30.7327 41.2088 31.0999 41.1728C31.4656 41.1369 31.828 41.0838 32.1889 41.0119C32.5499 40.94 32.9061 40.851 33.2576 40.7432C33.6092 40.6369 33.9544 40.5135 34.2951 40.3729C34.6341 40.2323 34.9669 40.0745 35.2903 39.9011C35.6153 39.7291 35.9294 39.5401 36.2356 39.3355C36.5403 39.1308 36.8356 38.912 37.12 38.6792C37.4043 38.4464 37.6762 38.1996 37.9371 37.9402C38.1965 37.6792 38.4433 37.4074 38.6761 37.123C38.909 36.8387 39.1277 36.5449 39.3323 36.2387C39.537 35.9325 39.7261 35.6185 39.8979 35.2935C40.0714 34.97 40.2292 34.6372 40.3698 34.2982C40.5104 33.9576 40.6338 33.6123 40.7401 33.2608C40.8479 32.9092 40.9369 32.553 41.0088 32.1921C41.0807 31.8311 41.1338 31.4686 41.1698 31.1031C41.2057 30.7359 41.2244 30.3703 41.2244 30.0016C41.2244 29.6344 41.2057 29.2687 41.1698 28.9016C41.1323 28.536 41.0792 28.1735 41.0072 27.8126C40.9338 27.4532 40.8448 27.097 40.7385 26.7454C40.6307 26.3939 40.5073 26.0486 40.3666 25.708C40.226 25.369 40.0682 25.0378 39.8948 24.7128C39.7214 24.3893 39.5339 24.0753 39.3292 23.7691C39.1245 23.4644 38.9058 23.1691 38.673 22.8848C38.4402 22.6003 38.1933 22.3286 37.934 22.0691C37.673 21.8083 37.4011 21.563 37.1184 21.3286C36.834 21.0958 36.5387 20.877 36.2341 20.6723C35.9278 20.4692 35.6138 20.2802 35.2888 20.1068C34.9654 19.9333 34.6341 19.7755 34.2935 19.6349C33.9545 19.4943 33.6092 19.3708 33.2576 19.2631C32.9061 19.1568 32.5499 19.0678 32.1889 18.9944C31.8296 18.9224 31.4656 18.8693 31.0999 18.8318C30.7343 18.7959 30.3687 18.7771 30 18.7771ZM30 35.7528C29.6234 35.7528 29.2485 35.7169 28.8782 35.6419C28.5079 35.5685 28.1486 35.4591 27.8001 35.3153C27.4517 35.1701 27.1189 34.9935 26.8048 34.7841C26.4924 34.5748 26.2018 34.3357 25.9346 34.0685C25.6674 33.8014 25.4284 33.5107 25.219 33.1967C25.0097 32.8826 24.8315 32.5514 24.6877 32.203C24.5425 31.8546 24.4347 31.4937 24.3597 31.1233C24.2862 30.7531 24.2503 30.3797 24.2503 30.0016C24.2503 29.625 24.2862 29.25 24.3597 28.8797C24.4347 28.5095 24.5425 28.1501 24.6877 27.8017C24.8315 27.4532 25.0097 27.1205 25.219 26.8064C25.4284 26.4939 25.6674 26.2034 25.9346 25.9361C26.2018 25.669 26.4924 25.4299 26.8048 25.2206C27.1189 25.0112 27.4517 24.8331 27.8001 24.6893C28.1486 24.5441 28.5079 24.4362 28.8782 24.3612C29.2485 24.2878 29.6234 24.2519 30 24.2519C30.3781 24.2519 30.7515 24.2878 31.1218 24.3612C31.4937 24.4362 31.853 24.5441 32.2015 24.6893C32.5499 24.8331 32.8811 25.0112 33.1952 25.2206C33.5092 25.4299 33.7998 25.669 34.0669 25.9361C34.3342 26.2034 34.5732 26.4939 34.7826 26.8064C34.9919 27.1205 35.1685 27.4532 35.3138 27.8017C35.4575 28.1501 35.5669 28.5095 35.6403 28.8797C35.7153 29.25 35.7513 29.625 35.7513 30.0016C35.7513 30.3797 35.7138 30.7531 35.6403 31.1233C35.5653 31.4937 35.4575 31.853 35.3122 32.2015C35.1669 32.5514 34.9903 32.8826 34.781 33.1952C34.57 33.5092 34.3326 33.7998 34.0655 34.0669C33.7982 34.3342 33.5076 34.5716 33.1936 34.7825C32.8811 34.9919 32.5499 35.1685 32.1999 35.3138C31.8514 35.4591 31.4921 35.5669 31.1218 35.6419C30.7515 35.7153 30.3781 35.7528 30 35.7528ZM30 24.8409C29.6609 24.8409 29.3266 24.8737 28.9938 24.9393C28.661 25.0049 28.3391 25.1034 28.0251 25.2331C27.7126 25.3628 27.4142 25.5221 27.133 25.7096C26.8517 25.8986 26.5908 26.1127 26.3502 26.3518C26.1112 26.5924 25.8971 26.8533 25.708 27.1346C25.5205 27.4157 25.3612 27.7141 25.2315 28.0267C25.1018 28.3391 25.0034 28.6626 24.9378 28.9954C24.8722 29.3281 24.8393 29.6625 24.8393 30.0016C24.8393 30.3406 24.8722 30.6765 24.9378 31.0093C25.0034 31.3421 25.1018 31.664 25.2315 31.9781C25.3612 32.2905 25.5205 32.5889 25.708 32.8702C25.8971 33.1514 26.1112 33.4123 26.3502 33.653C26.5908 33.892 26.8517 34.106 27.133 34.2935C27.4142 34.4826 27.7126 34.642 28.0251 34.7717C28.3391 34.9013 28.661 34.9981 28.9938 35.0653C29.3266 35.131 29.6609 35.1638 30 35.1638C30.3391 35.1638 30.675 35.131 31.0078 35.0653C31.3405 34.9981 31.6624 34.9013 31.9765 34.7717C32.2889 34.642 32.5873 34.4826 32.8686 34.2935C33.1498 34.106 33.4108 33.892 33.6514 33.653C33.8904 33.4123 34.1045 33.1514 34.292 32.8702C34.481 32.5889 34.6404 32.2905 34.7701 31.9781C34.8997 31.664 34.9967 31.3421 35.0638 31.0093C35.1294 30.6765 35.1623 30.3406 35.1623 30.0016C35.1623 29.6625 35.1294 29.3281 35.0623 28.9954C34.9967 28.6626 34.8982 28.3407 34.7685 28.0282C34.6388 27.7141 34.4795 27.4173 34.292 27.1361C34.103 26.8533 33.8888 26.5924 33.6498 26.3533C33.4092 26.1142 33.1498 25.9002 32.867 25.7111C32.5858 25.5237 32.2889 25.3643 31.9749 25.2346C31.6625 25.105 31.339 25.0065 31.0078 24.9409C30.675 24.8737 30.3391 24.8409 30 24.8409Z" fill="#191919"/>
</g>
<defs>
<clipPath id="clip0_196_186">
<rect width="60" height="60.75" fill="white"/>
</clipPath>
</defs>
</svg>
