<svg width="60" height="60" viewBox="0 0 60 60" fill="none" xmlns="http://www.w3.org/2000/svg">
<g clip-path="url(#clip0_196_182)">
<path d="M59.6199 44.3267L59.6276 44.2958C59.6291 44.2881 59.6291 44.2789 59.6276 44.2712C59.6306 44.2526 59.6306 44.2326 59.6276 44.214V0.298727C59.6306 0.278659 59.6306 0.260133 59.6276 0.240063C59.6291 0.232344 59.6291 0.224624 59.6276 0.215361L59.6199 0.18603C59.6199 0.175222 59.6091 0.165959 59.6044 0.156697C59.6013 0.148978 59.5967 0.141259 59.5905 0.13354C59.5705 0.101119 59.5426 0.0733312 59.5102 0.0517176C59.504 0.0470864 59.4994 0.0439983 59.4933 0.0409109L59.4639 0.023929L59.4346 0.0146661H59.4083C59.3882 0.00849119 59.3667 0.00385968 59.3451 0.00231557H15.4297C15.4112 -0.000771857 15.3911 -0.000771857 15.3726 0.00231557H15.3479L15.3171 0.0115784L15.2877 0.0270166C15.28 0.0301044 15.2722 0.0347359 15.2661 0.0393671C15.2491 0.0501739 15.2336 0.0625244 15.2213 0.0764185L0.447024 14.8646C0.431586 14.877 0.419236 14.8924 0.409973 14.9094C0.403797 14.9156 0.40071 14.9248 0.396079 14.9325C0.396079 14.9418 0.385272 14.9495 0.38064 14.9603L0.372921 14.9896C0.371377 14.9989 0.371377 15.0067 0.372921 15.0159C0.369834 15.0344 0.369834 15.0545 0.372921 15.073V58.9883C0.369834 59.0068 0.369834 59.0269 0.372921 59.0454C0.371377 59.0547 0.371377 59.0624 0.372921 59.0717L0.38064 59.101C0.385272 59.1119 0.391447 59.1211 0.397622 59.1304C0.40071 59.1381 0.403797 59.1458 0.409973 59.1519C0.430042 59.1859 0.457831 59.2121 0.490251 59.2338C0.49797 59.2399 0.505689 59.243 0.513408 59.2461L0.542741 59.2616L0.572073 59.2708H0.598318C0.616843 59.2786 0.63537 59.2816 0.655439 59.2847H44.5708C44.5893 59.2863 44.6093 59.2863 44.6279 59.2847H44.6541L44.6834 59.2755L44.7128 59.26C44.7205 59.257 44.7282 59.2523 44.7344 59.2477C44.7514 59.2369 44.7668 59.2245 44.7791 59.2106L59.5534 44.4364C59.5689 44.4224 59.5812 44.4085 59.5905 44.3916C59.5967 44.3839 59.5998 44.3777 59.6028 44.3684C59.6091 44.3545 59.6152 44.3406 59.6199 44.3267ZM15.7262 15.3694H44.2743V43.9176H15.7262V15.3694ZM44.8671 15.1965L59.0486 1.01506V43.9176H44.8671V15.1965ZM44.4473 14.7766H15.7262V0.59514H58.6287L44.4473 14.7766ZM15.1333 14.7766H1.37177L15.1333 1.01506V14.7766ZM0.95185 15.3694H15.1333V44.0905L0.95185 58.272V15.3694ZM15.5532 44.5104H44.2743V58.6919H1.37177L15.5532 44.5104ZM44.8671 44.5104H58.6287L44.8671 58.272V44.5104Z" fill="#191919"/>
</g>
<defs>
<clipPath id="clip0_196_182">
<rect width="60" height="60" fill="white"/>
</clipPath>
</defs>
</svg>
