<svg width="60" height="60" viewBox="0 0 60 60" fill="none" xmlns="http://www.w3.org/2000/svg">
<g clip-path="url(#clip0_196_190)">
<path d="M59.3519 29.3534C57.4417 29.3581 55.55 29.176 53.6753 28.8057C51.8021 28.4354 49.983 27.8845 48.2178 27.1547C46.4527 26.4234 44.777 25.5269 43.1908 24.4638C41.6031 23.3992 40.1357 22.191 38.7888 20.8362C37.4356 19.4893 36.2259 18.0219 35.1628 16.4357C34.0997 14.848 33.2032 13.1723 32.4718 11.4087C31.7405 9.64353 31.1911 7.82441 30.8208 5.94969C30.4505 4.07653 30.2685 2.1833 30.2731 0.273105C30.2731 0.199043 30.2469 0.134238 30.1929 0.0802341C30.1404 0.0277737 30.0756 0 30 0C29.9244 0 29.8611 0.0277737 29.8071 0.0802341C29.7532 0.134238 29.7269 0.199043 29.7269 0.273105C29.7315 2.1833 29.5495 4.07653 29.1792 5.94969C28.8104 7.82441 28.2595 9.64353 27.5282 11.4087C26.7968 13.1723 25.9003 14.848 24.8373 16.4357C23.7742 18.0219 22.5644 19.4893 21.2112 20.8362C19.8643 22.191 18.3969 23.3992 16.8107 24.4638C15.223 25.5269 13.5473 26.4234 11.7822 27.1547C10.0185 27.8845 8.19785 28.4354 6.32469 28.8057C4.44998 29.176 2.5583 29.3581 0.648105 29.3534C0.5725 29.3534 0.507695 29.3797 0.455234 29.4321C0.401231 29.4861 0.375 29.5509 0.375 29.625C0.375 29.7006 0.401231 29.7654 0.455234 29.8194C0.507695 29.8719 0.5725 29.8981 0.648105 29.8981C2.5583 29.8935 4.44998 30.0755 6.32469 30.4458C8.19785 30.8161 10.017 31.367 11.7822 32.0984C13.5473 32.8282 15.223 33.7262 16.8092 34.7893C18.3969 35.8524 19.8643 37.0606 21.2112 38.4153C22.5644 39.7623 23.7742 41.2297 24.8373 42.8158C25.9003 44.4036 26.7968 46.0792 27.5282 47.8428C28.2595 49.608 28.8104 51.4272 29.1792 53.3019C29.5495 55.175 29.7315 57.0683 29.7269 58.9784C29.7269 59.0525 29.7532 59.1173 29.8071 59.1713C29.8611 59.2238 29.9244 59.25 30 59.25C30.0756 59.25 30.1404 59.2238 30.1929 59.1713C30.2469 59.1173 30.2731 59.0525 30.2731 58.9784C30.2731 42.9439 43.3174 29.8981 59.3519 29.8981C59.4275 29.8981 59.4923 29.8719 59.5448 29.8194C59.5988 29.7654 59.625 29.7006 59.625 29.625C59.625 29.5509 59.5988 29.4861 59.5448 29.4321C59.4923 29.3797 59.4275 29.3534 59.3519 29.3534ZM30 54.9374C29.7855 53.3451 29.4414 51.7836 28.9708 50.2483C28.5002 48.7131 27.9062 47.2272 27.1918 45.7891C26.4774 44.3526 25.6504 42.9825 24.7122 41.6802C23.7726 40.378 22.7342 39.1605 21.5955 38.028C20.4645 36.8908 19.2486 35.8524 17.9463 34.9143C16.6456 33.9762 15.277 33.1491 13.8405 32.4348C12.404 31.7204 10.9181 31.1279 9.38596 30.6573C7.8522 30.1851 6.2892 29.841 4.69994 29.625C6.29074 29.4105 7.8522 29.0664 9.38596 28.5943C10.9196 28.1237 12.404 27.5312 13.842 26.8168C15.2785 26.1009 16.6471 25.2754 17.9479 24.3357C19.2501 23.3976 20.466 22.3592 21.597 21.222C22.7357 20.091 23.7726 18.8736 24.7122 17.5729C25.6504 16.2721 26.4759 14.902 27.1903 13.4655C27.9062 12.029 28.4987 10.5446 28.9693 9.01096C29.4414 7.4772 29.784 5.91574 30 4.32649C30.216 5.91574 30.5601 7.4772 31.0307 9.01096C31.5013 10.5446 32.0954 12.029 32.8098 13.4655C33.5241 14.902 34.3496 16.2721 35.2893 17.5729C36.2274 18.8736 37.2658 20.091 38.403 21.222C39.5355 22.3607 40.7514 23.3992 42.0537 24.3372C43.3559 25.2769 44.7261 26.1039 46.1641 26.8183C47.6022 27.5327 49.0881 28.1252 50.6233 28.5958C52.1571 29.068 53.7201 29.4105 55.3109 29.625C42.2018 31.4241 31.7976 41.8284 30 54.9374Z" fill="#191919"/>
</g>
<defs>
<clipPath id="clip0_196_190">
<rect width="59.9906" height="59.25" fill="white" transform="translate(0.00463867)"/>
</clipPath>
</defs>
</svg>
