<svg width="56" height="56" viewBox="0 0 56 56" fill="none" xmlns="http://www.w3.org/2000/svg">
<g clip-path="url(#clip0_193_137)">
<path d="M55.0305 26.9567C54.9393 26.9182 54.8581 26.9339 54.7883 27.0037L46.34 35.452V18.333C46.34 18.2347 46.2929 18.1663 46.2017 18.1293C46.1105 18.0908 46.0293 18.1064 45.9594 18.1763L37.5111 26.6246V9.50567C37.504 9.41302 37.457 9.34888 37.3715 9.31613C37.2845 9.28194 37.2076 9.29617 37.1391 9.35887L28.6908 17.8072V0.688236C28.688 0.591326 28.6424 0.524343 28.554 0.487289C28.4642 0.450235 28.3844 0.464487 28.3146 0.531469L0.531225 28.3262C0.464243 28.3961 0.449991 28.4759 0.487045 28.5642C0.524099 28.654 0.591082 28.6996 0.687992 28.7011H17.7969L9.35862 37.1494C9.28881 37.2192 9.27315 37.3005 9.31014 37.3916C9.34864 37.4828 9.41708 37.5284 9.51541 37.5284H26.6215L18.1803 45.9768C18.1105 46.0481 18.0949 46.1279 18.1318 46.2191C18.1703 46.3103 18.2374 46.3559 18.3371 46.3559H35.4461L27.0035 54.8042C26.9351 54.8754 26.9179 54.9552 26.9564 55.0465C26.9935 55.1377 27.0619 55.1833 27.1602 55.1833H54.945C55.0063 55.1833 55.0591 55.1619 55.1018 55.1191C55.146 55.075 55.1674 55.0237 55.1674 54.961V27.1705C55.1716 27.0678 55.126 26.9966 55.0305 26.9567ZM1.22527 28.2564L28.2505 1.22552V18.2518L18.2416 28.2564H1.22527ZM28.2505 18.8718V28.2564H18.8701L28.2505 18.8718ZM10.0498 37.0852L18.4255 28.7011H28.4728C28.5341 28.7011 28.5868 28.6797 28.6296 28.6369C28.6737 28.5928 28.6951 28.54 28.6951 28.4788V18.4314L37.075 10.0486V27.0735L27.069 37.0852H10.0498ZM37.075 27.7006V37.0838H27.6947L37.075 27.7006ZM18.873 45.9098L27.25 37.5299H37.2974C37.3586 37.5299 37.4099 37.5085 37.4541 37.4643C37.4969 37.4216 37.5197 37.3689 37.5197 37.3076V27.2559L45.8981 18.8718V35.8967L35.8936 45.9098H18.873ZM45.8981 36.5266V45.9098H36.5192L45.8981 36.5266ZM54.7227 54.7344H27.7018L36.0774 46.3545H46.1205C46.1818 46.3545 46.2345 46.333 46.2787 46.2889C46.3215 46.2461 46.3428 46.1934 46.3428 46.1321V36.082L54.7227 27.7006V54.7344Z" fill="#191919"/>
</g>
<defs>
<clipPath id="clip0_193_137">
<rect width="54.7006" height="55.3844" fill="white" transform="translate(0.467041 0.467285)"/>
</clipPath>
</defs>
</svg>
