<svg width="56" height="56" viewBox="0 0 56 56" fill="none" xmlns="http://www.w3.org/2000/svg">
<g clip-path="url(#clip0_193_164)">
<path d="M54.8204 40.9019L54.8274 40.8737C54.8288 40.8667 54.8288 40.8583 54.8274 40.8512C54.8302 40.8343 54.8302 40.8161 54.8274 40.7991V0.762577C54.8302 0.744281 54.8302 0.727391 54.8274 0.709094C54.8288 0.702057 54.8288 0.695019 54.8274 0.686574L54.8204 0.659833C54.8204 0.64998 54.8105 0.641536 54.8063 0.633091C54.8034 0.626054 54.7992 0.619016 54.7936 0.61198C54.7753 0.582422 54.7499 0.557089 54.7204 0.537384C54.7147 0.533162 54.7106 0.530347 54.705 0.527532L54.6782 0.51205L54.6515 0.503605H54.6275C54.6092 0.497976 54.5895 0.493753 54.5698 0.492345H14.5332C14.5164 0.489531 14.4981 0.489531 14.4812 0.492345H14.4587L14.4305 0.50079L14.4038 0.514865C14.3968 0.51768 14.3897 0.521902 14.3841 0.526124C14.3686 0.535977 14.3545 0.547236 14.3433 0.559903L0.873868 14.0419C0.859794 14.0532 0.848534 14.0673 0.84009 14.0828C0.834459 14.0884 0.831645 14.0968 0.827423 14.1039C0.827423 14.1123 0.81757 14.1193 0.813348 14.1292L0.80631 14.1559C0.804903 14.1644 0.804903 14.1715 0.80631 14.1799C0.803496 14.1968 0.803496 14.2151 0.80631 14.232V54.2685C0.803496 54.2854 0.803496 54.3037 0.80631 54.3206C0.804903 54.329 0.804903 54.3361 0.80631 54.3445L0.813348 54.3713C0.81757 54.3811 0.8232 54.3896 0.82883 54.398C0.831645 54.405 0.834459 54.4121 0.84009 54.4177C0.858387 54.4487 0.883721 54.4726 0.913278 54.4923C0.920314 54.4979 0.927352 54.5007 0.934389 54.5036L0.961131 54.5176L0.987872 54.5261H1.0118C1.02869 54.5331 1.04558 54.5359 1.06388 54.5387H41.1004C41.1173 54.5402 41.1356 54.5402 41.1525 54.5387H41.1764L41.2032 54.5303L41.2299 54.5162C41.2369 54.5134 41.244 54.5092 41.2496 54.505C41.2651 54.4951 41.2792 54.4838 41.2904 54.4711L54.7598 41.0018C54.7739 40.9891 54.7851 40.9764 54.7936 40.961C54.7992 40.954 54.8021 40.9483 54.8048 40.9399C54.8105 40.9272 54.8161 40.9145 54.8204 40.9019ZM14.8035 14.5022H40.8302V40.5289H14.8035V14.5022ZM41.3706 14.3445L54.2996 1.41564V40.5289H41.3706V14.3445ZM40.9879 13.9617H14.8035V1.03281H53.9167L40.9879 13.9617ZM14.263 13.9617H1.71694L14.263 1.41564V13.9617ZM1.33411 14.5022H14.263V40.6865L1.33411 53.6155V14.5022ZM14.6458 41.0694H40.8302V53.9983H1.71694L14.6458 41.0694ZM41.3706 41.0694H53.9167L41.3706 53.6155V41.0694Z" fill="#191919"/>
</g>
<defs>
<clipPath id="clip0_193_164">
<rect width="54.7006" height="54.7006" fill="white" transform="translate(0.466553 0.490723)"/>
</clipPath>
</defs>
</svg>
