<svg width="56" height="55" viewBox="0 0 56 55" fill="none" xmlns="http://www.w3.org/2000/svg">
<g clip-path="url(#clip0_193_150)">
<path d="M54.5208 13.3235C54.4871 13.3235 54.4547 13.3178 54.4223 13.3065L45.6642 10.2C45.5742 10.169 45.5136 10.1085 45.4827 10.0184L42.3761 1.26175C42.3338 1.1407 42.3578 1.03653 42.4507 0.947856C42.5436 0.860585 42.6477 0.839471 42.7674 0.88733L51.1905 4.32469C51.2679 4.35706 51.3228 4.41196 51.3552 4.48938L54.7953 12.9153C54.8136 12.9617 54.8207 13.0096 54.815 13.0575C54.8094 13.1067 54.7939 13.1517 54.7658 13.1926C54.739 13.2334 54.7024 13.2658 54.6602 13.2882C54.6166 13.3122 54.5701 13.3235 54.5208 13.3235ZM45.995 9.6862L53.9944 12.5226L50.8512 4.83002L43.1587 1.68825L45.995 9.6862Z" fill="#191919"/>
<path d="M54.8179 12.9605C54.7939 12.8535 54.7292 12.7831 54.6264 12.7465L45.9965 9.68641L42.9377 1.05642C42.9208 1.00856 42.8927 0.967742 42.8547 0.933959C42.8167 0.900176 42.773 0.877655 42.7224 0.866394C42.6731 0.855133 42.6239 0.856541 42.5746 0.870616C42.5253 0.884693 42.4831 0.91003 42.4479 0.946627L0.922293 42.475L0.911032 42.4877L0.903994 42.4948C0.809685 42.5834 0.785756 42.689 0.829392 42.81L3.93597 51.5668C3.9416 51.5808 3.94863 51.5948 3.95567 51.6075L3.96411 51.623C3.97538 51.6399 3.98804 51.6554 4.00212 51.6709C4.01761 51.685 4.03309 51.6976 4.04998 51.7089L4.06405 51.7159C4.07673 51.7243 4.09221 51.73 4.10628 51.7356L12.8644 54.8422C12.8954 54.8535 12.9291 54.8605 12.9629 54.8605C13.0488 54.8605 13.1205 54.8295 13.1797 54.7676V54.7591L13.1923 54.7465L54.7306 13.2378C54.8108 13.1618 54.8404 13.0689 54.8179 12.9605ZM1.49096 42.7495L42.5337 1.70673L45.4193 9.84266L4.33854 50.9235L1.47266 42.8467C1.48392 42.8143 1.48956 42.7819 1.49096 42.7495ZM12.9333 54.1919C12.901 54.1919 12.8686 54.1975 12.8376 54.2102L4.758 51.3443L45.8402 10.2635L53.9761 13.1491L12.9333 54.1919Z" fill="#191919"/>
</g>
<defs>
<clipPath id="clip0_193_150">
<rect width="54.6921" height="54.0168" fill="white" transform="translate(0.471191 0.84375)"/>
</clipPath>
</defs>
</svg>
